# AST/ASF file generated using VICON BodyLanguage
# -----------------------------------------------
:version 1.10
:name VICON
:units
  mass 1.0
  length 0.45
  angle deg
:documentation
   .ast/.asf automatically generated from VICON data using
   VICON BodyBuilder and BodyLanguage model FoxedUp or BRILLIANT.MOD
:root
   order TX TY TZ RX RY RZ
   axis XYZ
   position 0 0 0  
   orientation 0 0 0 
:bonedata
  begin
     id 1 
     name lhipjoint
     direction 0.575328 -0.747301 0.332475 
     length 2.40933 
     axis 0 0 0  XYZ
  end
  begin
     id 2 
     name lfemur
     direction 0.34202 -0.939693 0  
     length 7.31453  
     axis 0 0 20  XYZ
    dof rx ry rz
    limits (-160.0 20.0)
           (-70.0 70.0)
           (-60.0 70.0)
  end
  begin
     id 3 
     name ltibia
     direction 0.34202 -0.939693 0   
     length 7.82185   
     axis 0 0 20   XYZ
    dof rx
    limits (-10.0 170.0)
  end
  begin
     id 4 
     name lfoot
     direction 0.0795993 -0.218697 0.972541   
     length 2.19173   
     axis -90 7.62852e-016 20   XYZ
    dof rx rz
    limits (-45.0 90.0)
           (-70.0 20.0)
  end
  begin
     id 5 
     name ltoes
     direction 1.53537e-011 -4.21894e-011 1   
     length 1.10023   
     axis -90 7.62852e-016 20   XYZ
    dof rx
    limits (-90.0 20.0)
  end
  begin
     id 6 
     name rhipjoint
     direction -0.513884 -0.783789 0.348708   
     length 2.29716  
     axis 0 0 0  XYZ 
  end
  begin
     id 7 
     name rfemur
     direction -0.34202 -0.939693 0   
     length 7.59573   
     axis 0 0 -20   XYZ
    dof rx ry rz
    limits (-160.0 20.0)
           (-70.0 70.0)
           (-70.0 60.0)
  end
  begin
     id 8 
     name rtibia
     direction -0.34202 -0.939693 0   
     length 7.66402   
     axis 0 0 -20   XYZ
    dof rx
    limits (-10.0 170.0)
 end
 begin
     id 9 
     name rfoot
     direction -0.137793 -0.378584 0.915253   
     length 2.27056  
     axis -90 -7.62852e-016 -20   XYZ
    dof rx rz
    limits (-45.0 90.0)
           (-20.0 70.0)
  end
  begin
     id 10 
     name rtoes
     direction -1.53493e-011 -4.22159e-011 1   
     length 1.11766   
     axis -90 -7.62852e-016 -20   XYZ
    dof rx
    limits (-90.0 20.0)
  end
  begin
     id 11 
     name lowerback
     direction -0.00732775 0.998356 -0.05685   
     length 2.16513   
     axis 0 0 0   XYZ
    dof rx ry rz
    limits (-20.0 45.0)
           (-30.0 30.0)
           (-30.0 30.0)
  end
  begin
     id 12 
     name upperback
     direction 0.0218081 0.999627 -0.0164647   
     length 2.16755   
     axis 0 0 0   XYZ
    dof rx ry rz
    limits (-20.0 45.0)
           (-30.0 30.0)
           (-30.0 30.0)
  end
  begin
     id 13 
     name thorax
     direction 0.02365 0.999661 0.0108914   
     length 2.16932   
     axis 0 0 0   XYZ
    dof rx ry rz
    limits (-20.0 45.0)
           (-30.0 30.0)
           (-30.0 30.0)
  end
  begin
     id 14 
     name lowerneck
     direction -0.0523929 0.978385 0.200044   
     length 1.63877   
     axis 0 0 0   XYZ
    dof rx ry rz
    limits (-20.0 45.0)
           (-30.0 30.0)
           (-30.0 30.0)
  end
  begin
     id 15 
     name upperneck
     direction 0.0448674 0.981321 -0.187074   
     length 1.69014   
     axis 0 0 0   XYZ
    dof rx ry rz
    limits (-20.0 45.0)
           (-30.0 30.0)
           (-30.0 30.0)
  end
  begin
     id 16
     name head
     direction 0.0199089 0.996118 -0.0857429  
     length 1.70094  
     axis 0 0 0   XYZ
    dof rx ry rz
    limits (-20.0 45.0)
           (-30.0 30.0)
           (-30.0 30.0)
  end
  begin
     id 17 
     name lclavicle
     direction 0.940366 0.30191 -0.156722  
     length 3.37521  
     axis 0 0 0   XYZ
    dof ry rz
    limits (-20.0 10.0)
           (0.0 20.0)
  end
  begin
     id 18 
     name lhumerus
     direction 1 -4.4897e-011 -1.7911e-027   
     length 5.25287   
     axis 180 -30 -90   XYZ
    dof rx ry rz
    limits (-60.0 90.0)
           (-90.0 90.0)
           (-90.0 90.0)
  end
  begin
     id 19
     name lradius
     direction 1 -4.48951e-011 1.04424e-027   
     length 3.51014   
     axis 180 -30 -90   XYZ
    dof rx
    limits (-10.0 170.0)
  end
  begin
     id 20
     name lwrist
     direction 1 -4.48997e-011 -9.5942e-028   
     length 1.75507   
     axis 8.48502e-016 90 90   XYZ
    dof ry
    limits (-180.0 0.0)
 end
  begin
     id 21 
     name lhand
     direction 1 -4.48831e-011 -1.90777e-027   
     length 0.706179   
     axis 1.22306e-015 90 90   XYZ
    dof rx rz
    limits (-90.0 90.0)
           (-45.0 45.0)
  end
  begin
     id 22 
     name lfingers
     direction 1 -4.49108e-011 -3.85244e-027   
     length 0.569339   
     axis 2.44611e-015 90 90   XYZ
    dof rx
    limits (0.0 90.0)
  end
  begin
     id 23
     name lthumb
     direction 0.707107 -6.34953e-011 0.707107   
     length 0.817461   
     axis -90 45 -1.62303e-014   XYZ
    dof rx rz
    limits (-45.0 45.0)
           (-45.0 45.0)
  end
  begin
     id 24 
     name rclavicle
     direction -0.905329 0.382405 -0.184787   
     length 3.30787  
     axis 0 0 0   XYZ 
    dof ry rz
    limits (-10.0 20.0)
           (-20.0 0.0)
  end
  begin
     id 25 
     name rhumerus
     direction -1 -4.48953e-011 -9.15316e-029  
     length 5.28721   
     axis 180 30 90   XYZ
    dof rx ry rz
    limits (-90.0 60.0)
           (-90.0 90.0)
           (-90.0 90.0)
  end
  begin
     id 26 
     name rradius
     direction -1 -4.48987e-011 9.37824e-028   
     length 3.50544   
     axis 180 30 90   XYZ
    dof rx
    limits (-10.0 170.0)
  end
  begin
     id 27 
     name rwrist
     direction -1 -4.48967e-011 -9.58414e-028   
     length 1.75272   
     axis 8.48502e-016 -90 -90   XYZ
    dof ry
    limits (-180.0 0.0)
  end
  begin
     id 28
     name rhand
     direction -1 -4.48904e-011 -1.91266e-027   
     length 0.884996   
     axis 1.22306e-015 -90 -90   XYZ
    dof rx rz
    limits (-90.0 90.0)
           (-45.0 45.0)
  end
  begin
     id 29
     name rfingers
     direction -1 -4.4909e-011 -3.85015e-027   
     length 0.713507   
     axis 2.44611e-015 -90 -90   XYZ
    dof rx
    limits (0.0 90.0)
  end
  begin
     id 30
     name rthumb
     direction -0.707107 -6.34853e-011 0.707107   
     length 1.02446   
     axis -90 -45 1.62303e-014   XYZ
    dof rx rz
    limits (-45.0 45.0)
           (-45.0 45.0)
  end
:hierarchy
  begin
    root lhipjoint rhipjoint lowerback
    lhipjoint lfemur
    lfemur ltibia
    ltibia lfoot
    lfoot ltoes
    rhipjoint rfemur
    rfemur rtibia
    rtibia rfoot
    rfoot rtoes
    lowerback upperback
    upperback thorax
    thorax lowerneck lclavicle rclavicle
    lowerneck upperneck
    upperneck head
    lclavicle lhumerus
    lhumerus lradius
    lradius lwrist
    lwrist lhand lthumb
    lhand lfingers
    rclavicle rhumerus
    rhumerus rradius
    rradius rwrist
    rwrist rhand rthumb
    rhand rfingers
  end

#!OML:ASF F:\twosubjects\two\Thursday\Session 1\justin.ASF
:FULLY-SPECIFIED
:DEGREES
129
root 7.36434 9.36663 -21.4522 -24.9619 -2.50227 0.705657
lowerback 37.2189 1.21383 -1.65375
upperback 15.3174 0.990595 1.63535
thorax -1.66032 0.304145 2.24718
lowerneck -22.0418 -3.25039 -9.612
upperneck 7.62898 -2.685 7.94812
head 6.08912 -0.939794 3.82334
rclavicle 1.05356e-014 -1.07344e-014
rhumerus 20.9435 37.4969 -71.8023
rradius 62.1644
rwrist 7.25407
rhand 12.8959 7.5024
rfingers 7.12502
rthumb 37.8675 -18.3327
lclavicle 1.05356e-014 -1.07344e-014
lhumerus 21.4606 -36.8441 72.4255
lradius 59.7849
lwrist -34.7167
lhand 20.6005 37.9878
lfingers 7.12502
lthumb 45.0941 61.4502
rfemur -68.062 -17.5689 7.1388
rtibia 86.9663
rfoot 5.97476 4.58963
rtoes -8.42686
lfemur -67.1522 19.0029 -5.2273
ltibia 88.8655
lfoot 1.37527 -18.3132
ltoes -12.6903
130
root 7.3659 9.3699 -21.4532 -24.9833 -2.56774 0.598512
lowerback 37.224 1.20502 -1.5386
upperback 15.3516 1.01817 1.65436
thorax -1.62517 0.321697 2.19801
lowerneck -22.0818 -3.21241 -9.49878
upperneck 7.57797 -2.64471 7.83356
head 6.07151 -0.925212 3.77138
rclavicle -9.93923e-016 9.54166e-015
rhumerus 21.0317 37.5393 -71.7248
rradius 62.1902
rwrist 7.05279
rhand 12.7417 7.18133
rfingers 7.12502
rthumb 37.7219 -18.693
lclavicle -9.93923e-016 9.54166e-015
lhumerus 21.5435 -36.9879 72.3293
lradius 59.8532
lwrist -34.5927
lhand 20.3641 38.4543
lfingers 7.12502
lthumb 44.8741 62.0033
rfemur -68.0097 -17.5328 7.27385
rtibia 86.9419
rfoot 6.01893 4.54193
rtoes -8.68558
lfemur -67.1408 19.0267 -5.09432
ltibia 88.8921
lfoot 2.59113 -17.7856
ltoes -6.39137
131
root 7.36707 9.37147 -21.4537 -24.9971 -2.56136 0.64884
lowerback 37.2464 1.25137 -1.56054
upperback 15.4072 1.06681 1.6333
thorax -1.57327 0.345154 2.17153
lowerneck -22.2994 -3.24377 -9.43873
upperneck 7.57725 -2.68599 7.84949
head 6.10819 -0.937612 3.76235
rclavicle 1.27222e-014 1.23246e-014
rhumerus 21.1326 37.4046 -71.6279
rradius 62.2845
rwrist 6.91539
rhand 12.7813 7.01583
rfingers 7.12502
rthumb 37.7593 -18.8485
lclavicle 1.27222e-014 1.23246e-014
lhumerus 21.7499 -37.039 72.2542
lradius 59.8502
lwrist -34.5556
lhand 20.2316 38.4945
lfingers 7.12502
lthumb 44.7508 62.0915
rfemur -67.9751 -17.5356 7.21314
rtibia 86.9245
rfoot 6.01098 4.52604
rtoes -8.52574
lfemur -67.137 19.0157 -5.13718
ltibia 88.9143
lfoot 2.60499 -17.7966
ltoes -5.93512
132
root 7.36734 9.37217 -21.4526 -25.0049 -2.49444 0.684011
lowerback 37.2353 1.25869 -1.59591
upperback 15.4468 1.06462 1.62414
thorax -1.52641 0.342499 2.18157
lowerneck -22.4184 -3.26049 -9.4145
upperneck 7.58484 -2.70365 7.84165
head 6.13012 -0.943734 3.75393
rclavicle -3.57812e-015 -1.23246e-014
rhumerus 21.1159 37.3363 -71.6457
rradius 62.259
rwrist 7.0302
rhand 12.5241 7.09599
rfingers 7.12502
rthumb 37.5163 -18.8332
lclavicle -3.57812e-015 -1.23246e-014
lhumerus 21.7869 -36.9983 72.303
lradius 59.8407
lwrist -34.6438
lhand 20.1612 38.3878
lfingers 7.12502
lthumb 44.6852 62.0103
rfemur -67.9435 -17.5865 7.1316
rtibia 86.9232
rfoot 6.09156 4.53227
rtoes -8.29892
lfemur -67.138 18.9829 -5.21465
ltibia 88.9144
lfoot 2.01088 -17.9206
ltoes -7.74135
133
root 7.36706 9.37503 -21.4536 -24.9837 -2.50808 0.564125
lowerback 37.2208 1.21074 -1.48895
upperback 15.4411 1.0418 1.63777
thorax -1.52625 0.33584 2.14761
lowerneck -22.4456 -3.23629 -9.39368
upperneck 7.6331 -2.67029 7.79446
head 6.14569 -0.930617 3.73928
rclavicle -5.1684e-015 -1.11319e-014
rhumerus 21.071 37.4081 -71.6735
rradius 62.2643
rwrist 7.05215
rhand 12.2987 7.03862
rfingers 7.12502
rthumb 37.3031 -18.9469
lclavicle -5.1684e-015 -1.11319e-014
lhumerus 21.6564 -36.7667 72.4726
lradius 59.8286
lwrist -34.7921
lhand 20.6223 37.8582
lfingers 7.12502
lthumb 45.1143 61.3126
rfemur -67.933 -17.5741 7.26146
rtibia 86.9126
rfoot 6.04001 4.51564
rtoes -8.49023
lfemur -67.1577 18.9741 -5.09784
ltibia 88.9055
lfoot 2.12088 -17.7506
ltoes -6.99459
134
root 7.36674 9.37735 -21.4552 -24.9561 -2.58443 0.449064
lowerback 37.1957 1.18933 -1.38125
upperback 15.458 1.05117 1.65467
thorax -1.4995 0.344284 2.10633
lowerneck -22.4892 -3.23986 -9.46446
upperneck 7.63467 -2.66163 7.87494
head 6.15468 -0.920987 3.77859
rclavicle 4.17448e-015 7.15625e-015
rhumerus 21.1482 37.403 -71.6277
rradius 62.3392
rwrist 6.98454
rhand 12.4078 6.94821
rfingers 7.12502
rthumb 37.4063 -19.0101
lclavicle 4.17448e-015 7.15625e-015
lhumerus 21.6763 -36.5496 72.5327
lradius 59.8033
lwrist -34.802
lhand 21.2466 37.2766
lfingers 7.12502
lthumb 45.6945 60.4972
rfemur -67.9352 -17.5046 7.41989
rtibia 86.8856
rfoot 5.88485 4.50535
rtoes -8.86328
lfemur -67.1784 18.9963 -4.9431
ltibia 88.9008
lfoot 2.97052 -17.5705
ltoes -4.04245
